<?xml version="1.0" encoding="UTF-8" standalone="no"?>
<!-- Created with Inkscape (http://www.inkscape.org/) -->

<svg
   width="109.0166mm"
   height="19.224392mm"
   viewBox="0 0 109.0166 19.224392"
   version="1.1"
   id="svg1"
   inkscape:version="1.4.3 (0d15f75, 2025-12-25)"
   sodipodi:docname="lime_dice_logo_2026 V3.svg"
   xmlns:inkscape="http://www.inkscape.org/namespaces/inkscape"
   xmlns:sodipodi="http://sodipodi.sourceforge.net/DTD/sodipodi-0.dtd"
   xmlns="http://www.w3.org/2000/svg"
   xmlns:svg="http://www.w3.org/2000/svg">
  <sodipodi:namedview
     id="namedview1"
     pagecolor="#ffffff"
     bordercolor="#000000"
     borderopacity="0.25"
     inkscape:showpageshadow="2"
     inkscape:pageopacity="0.0"
     inkscape:pagecheckerboard="0"
     inkscape:deskcolor="#d1d1d1"
     inkscape:document-units="mm"
     inkscape:zoom="2.8284272"
     inkscape:cx="432.39579"
     inkscape:cy="63.286055"
     inkscape:window-width="1840"
     inkscape:window-height="1000"
     inkscape:window-x="704"
     inkscape:window-y="0"
     inkscape:window-maximized="0"
     inkscape:current-layer="layer1"
     showgrid="true">
    <inkscape:grid
       id="grid13"
       units="mm"
       originx="-4.3564601"
       originy="-4.6848974"
       spacingx="0.99999998"
       spacingy="1"
       empcolor="#0099e5"
       empopacity="0.30196078"
       color="#0099e5"
       opacity="0.14901961"
       empspacing="5"
       enabled="true"
       visible="true" />
    <inkscape:page
       x="0"
       y="0"
       width="109.0166"
       height="19.224392"
       id="page2"
       margin="0"
       bleed="0" />
  </sodipodi:namedview>
  <defs
     id="defs1" />
  <g
     inkscape:label="Layer 1"
     inkscape:groupmode="layer"
     id="layer1"
     transform="translate(-4.3564603,-4.6848973)">
    <path
       style="font-weight:500;font-size:25.4px;font-family:Inter;-inkscape-font-specification:'Inter Medium';fill:#000000;fill-opacity:1;stroke-width:0.264583"
       d="m 107.39513,23.90929 q -1.94717,0 -3.34864,-0.880567 -1.38906,-0.880566 -2.1456,-2.418457 -0.74414,-1.550293 -0.74414,-3.522265 0,-2.00918 0.78134,-3.54707 0.78135,-1.550293 2.15801,-2.43086 1.37666,-0.892969 3.1626,-0.892969 1.38906,0 2.50527,0.496094 1.12862,0.496094 1.93477,1.413867 0.80615,0.905371 1.24023,2.158008 0.43409,1.252637 0.43409,2.778125 v 0.706934 h -11.03809 v -1.984375 h 9.66143 l -1.15342,0.607715 q 0,-1.21543 -0.43408,-2.108399 -0.43409,-0.905371 -1.24024,-1.389062 -0.79375,-0.496094 -1.88516,-0.496094 -1.079,0 -1.87275,0.496094 -0.79375,0.483691 -1.24023,1.389062 -0.43409,0.892969 -0.43409,2.108399 v 1.128613 q 0,1.240234 0.43409,2.195215 0.43408,0.942578 1.25263,1.475878 0.83096,0.533301 2.00918,0.533301 0.85576,0 1.51309,-0.260449 0.65732,-0.272852 1.0914,-0.744141 0.43409,-0.471289 0.62012,-1.091406 h 2.51768 q -0.23565,1.265039 -1.0542,2.232422 -0.80615,0.95498 -2.03399,1.500684 -1.21543,0.545703 -2.6913,0.545703 z"
       id="path13"
       inkscape:export-filename="lime_dice_logo_2026 V1.svg"
       inkscape:export-xdpi="96"
       inkscape:export-ydpi="96" />
    <path
       style="font-weight:500;font-size:25.4px;font-family:Inter;-inkscape-font-specification:'Inter Medium';fill:#000000;fill-opacity:1;stroke-width:0.264583"
       d="m 93.851763,23.90929 q -1.87275,0 -3.27421,-0.868164 -1.40147,-0.868164 -2.19522,-2.406055 -0.78135,-1.550293 -0.78135,-3.54707 0,-2.021582 0.78135,-3.571875 0.79375,-1.550293 2.19522,-2.418457 1.40146,-0.880567 3.27421,-0.880567 1.16583,0 2.15801,0.359668 1.00459,0.347266 1.76114,0.992188 0.75654,0.632519 1.21543,1.513086 0.47128,0.868164 0.59531,1.909961 h -2.60449 q -0.0992,-0.558106 -0.34727,-1.016992 -0.24805,-0.458887 -0.64492,-0.79375 -0.39688,-0.334864 -0.93018,-0.520899 -0.5209,-0.186035 -1.19062,-0.186035 -1.12862,0 -1.93477,0.570508 -0.80615,0.570508 -1.24023,1.612304 -0.43408,1.029395 -0.43408,2.43086 0,1.389062 0.43408,2.418457 0.43408,1.016992 1.24023,1.5875 0.80615,0.558105 1.93477,0.558105 0.66972,0 1.19062,-0.173633 0.5209,-0.186035 0.89297,-0.520898 0.37207,-0.334863 0.62012,-0.79375 0.24804,-0.471289 0.37207,-1.041797 h 2.6417 q -0.11162,1.029395 -0.58291,1.897559 -0.45889,0.868164 -1.22783,1.525488 -0.75655,0.644922 -1.76114,1.00459 -0.99218,0.359668 -2.15801,0.359668 z"
       id="path12" />
    <path
       style="font-weight:500;font-size:25.4px;font-family:Inter;-inkscape-font-specification:'Inter Medium';fill:#000000;fill-opacity:1;stroke-width:0.264583"
       d="M 82.677263,23.611633 V 10.514759 h 2.61689 v 13.096874 z"
       id="path10" />
    <path
       style="font-weight:500;font-size:25.4px;font-family:Inter;-inkscape-font-specification:'Inter Medium';fill:#000000;fill-opacity:1;stroke-width:0.264583"
       d="M 68.030093,5.1321423 V 23.611633 h -2.75332 V 5.1321423 Z"
       id="path9" />
    <path
       style="font-weight:500;font-size:25.4px;font-family:Inter;-inkscape-font-specification:'Inter Medium';fill:#000000;fill-opacity:1;stroke-width:0.264583"
       d="m 71.254703,23.611633 h -4.55166 v -2.393652 h 4.37802 q 2.15801,0 3.55948,-0.818555 1.40146,-0.818554 2.09599,-2.356445 0.69453,-1.550293 0.69453,-3.695898 0,-2.145606 -0.68212,-3.671094 -0.68213,-1.5254877 -2.05879,-2.3316397 -1.36426,-0.818555 -3.42305,-0.818555 h -4.66328 v -2.393652 h 4.83691 q 2.71612,0 4.67569,1.11621 1.97197,1.103809 3.02617,3.175 1.0542,2.0587887 1.0542,4.9237307 0,2.864941 -1.0666,4.948535 -1.0542,2.071191 -3.05098,3.199805 -1.99678,1.11621 -4.82451,1.11621 z"
       id="path8" />
    <path
       style="font-weight:500;font-size:25.4px;font-family:Inter;-inkscape-font-specification:'Inter Medium';fill:#000000;fill-opacity:1;stroke-width:0.264583"
       d="m 50.778429,23.90929 q -1.947167,0 -3.348632,-0.880567 -1.389063,-0.880566 -2.145606,-2.418457 -0.74414,-1.550293 -0.74414,-3.522265 0,-2.00918 0.781347,-3.54707 0.781348,-1.550293 2.158008,-2.43086 1.37666,-0.892969 3.162598,-0.892969 1.389062,0 2.505273,0.496094 1.128613,0.496094 1.934766,1.413867 0.806152,0.905371 1.240234,2.158008 0.434082,1.252637 0.434082,2.778125 V 17.77013 H 45.718273 v -1.984375 h 9.661426 l -1.153418,0.607715 q 0,-1.21543 -0.434082,-2.108399 -0.434082,-0.905371 -1.240234,-1.389062 -0.79375,-0.496094 -1.885157,-0.496094 -1.079004,0 -1.872753,0.496094 -0.79375,0.483691 -1.240235,1.389062 -0.434082,0.892969 -0.434082,2.108399 v 1.128613 q 0,1.240234 0.434082,2.195215 0.434082,0.942578 1.252637,1.475878 0.830957,0.533301 2.00918,0.533301 0.855761,0 1.513085,-0.260449 0.657325,-0.272852 1.091407,-0.744141 0.434082,-0.471289 0.620117,-1.091406 h 2.517676 q -0.235645,1.265039 -1.0542,2.232422 -0.806152,0.95498 -2.033984,1.500684 -1.21543,0.545703 -2.691309,0.545703 z"
       id="path7" />
    <path
       style="font-weight:500;font-size:25.4px;font-family:Inter;-inkscape-font-specification:'Inter Medium';fill:#000000;fill-opacity:1;stroke-width:0.264583"
       d="M 23.493276,23.611633 V 10.514759 h 2.542481 v 2.765722 H 25.78771 q 0.37207,-0.992187 0.992187,-1.661914 0.63252,-0.682129 1.451075,-1.016992 0.818554,-0.347266 1.711523,-0.347266 1.525488,0 2.604492,0.880567 1.091406,0.868164 1.339453,2.145605 h -0.409277 q 0.272851,-0.868164 0.880566,-1.550293 0.620118,-0.682129 1.513086,-1.079004 0.892969,-0.396875 1.984375,-0.396875 1.227832,0 2.22002,0.533301 0.992187,0.533301 1.575097,1.5875 0.58291,1.041797 0.58291,2.616895 v 8.619628 h -2.629296 v -8.396386 q 0,-1.401465 -0.781348,-2.033984 -0.781348,-0.63252 -1.847949,-0.63252 -0.868164,0 -1.500684,0.37207 -0.632519,0.372071 -0.979785,1.016992 -0.347266,0.644922 -0.347266,1.488282 v 8.185546 h -2.579687 v -8.570019 q 0,-1.128613 -0.731738,-1.810742 -0.719336,-0.682129 -1.835547,-0.682129 -0.756543,0 -1.42627,0.359668 -0.657324,0.359668 -1.066601,1.066602 -0.396875,0.694531 -0.396875,1.736328 v 7.900292 z"
       id="path6" />
    <path
       style="font-weight:500;font-size:25.4px;font-family:Inter;-inkscape-font-specification:'Inter Medium';fill:#000000;fill-opacity:1;stroke-width:0.264583"
       d="m 19.22687,8.2575323 q -0.694531,0 -1.178222,-0.458887 -0.471289,-0.471289 -0.471289,-1.141015 0,-0.682129 0.471289,-1.141016 0.483691,-0.471289 1.178222,-0.471289 0.694532,0 1.178223,0.471289 0.483691,0.458887 0.483691,1.141016 0,0.669726 -0.483691,1.141015 -0.483691,0.458887 -1.178223,0.458887 z"
       id="path5" />
    <path
       style="font-weight:500;font-size:25.4px;font-family:Inter;-inkscape-font-specification:'Inter Medium';fill:#000000;fill-opacity:1;stroke-width:0.264583"
       d="M 17.924624,23.611633 V 10.514759 h 2.616895 v 13.096874 z"
       id="path4" />
    <path
       style="font-weight:500;font-size:25.4px;font-family:Inter;-inkscape-font-specification:'Inter Medium';fill:#000000;fill-opacity:1;stroke-width:0.264583"
       d="M 4.3564603,23.611633 V 5.1321423 h 2.75332 V 21.193176 h 8.7436517 v 2.418457 z"
       id="text4" />
    <rect
       style="fill:#74f443;fill-opacity:1;stroke-width:0.26664"
       id="rect4"
       width="3.2119999"
       height="3.2119999"
       x="77.796341"
       y="26.556282"
       transform="rotate(-15)" />
  </g>
</svg>
