<?xml version="1.0" encoding="UTF-8" standalone="no"?>
<!-- Created with Inkscape (http://www.inkscape.org/) -->

<svg
   width="115.25498mm"
   height="19.891216mm"
   viewBox="0 0 115.25498 19.891216"
   version="1.1"
   id="svg1"
   inkscape:version="1.4.3 (0d15f75, 2025-12-25)"
   sodipodi:docname="Lime-Dice-Logo-2026-Bold-v1.svg"
   xmlns:inkscape="http://www.inkscape.org/namespaces/inkscape"
   xmlns:sodipodi="http://sodipodi.sourceforge.net/DTD/sodipodi-0.dtd"
   xmlns="http://www.w3.org/2000/svg"
   xmlns:svg="http://www.w3.org/2000/svg">
  <sodipodi:namedview
     id="namedview1"
     pagecolor="#e1cccc"
     bordercolor="#000000"
     borderopacity="0.25"
     inkscape:showpageshadow="2"
     inkscape:pageopacity="0.0"
     inkscape:pagecheckerboard="0"
     inkscape:deskcolor="#d1d1d1"
     inkscape:document-units="mm"
     showgrid="true"
     inkscape:zoom="2.0334082"
     inkscape:cx="94.668647"
     inkscape:cy="74.01367"
     inkscape:window-width="2560"
     inkscape:window-height="1009"
     inkscape:window-x="-8"
     inkscape:window-y="-8"
     inkscape:window-maximized="1"
     inkscape:current-layer="layer1">
    <inkscape:grid
       id="grid11"
       units="mm"
       originx="-27.688767"
       originy="-10.216847"
       spacingx="0.99999998"
       spacingy="1"
       empcolor="#0099e5"
       empopacity="0.30196078"
       color="#0099e5"
       opacity="0.14901961"
       empspacing="5"
       enabled="true"
       visible="true" />
  </sodipodi:namedview>
  <defs
     id="defs1" />
  <g
     inkscape:label="Layer 1"
     inkscape:groupmode="layer"
     id="layer1"
     transform="translate(-27.688767,-10.216847)">
    <path
       style="font-weight:800;font-size:25.4px;font-family:Inter;-inkscape-font-specification:'Inter Ultra-Bold';stroke-width:0.264583"
       d="m 136.40772,30.108064 q -2.00918,0 -3.53467,-0.868164 -1.51309,-0.880567 -2.36885,-2.43086 -0.84336,-1.550292 -0.84336,-3.54707 0,-1.996777 0.84336,-3.54707 0.85576,-1.550293 2.35645,-2.418457 1.50068,-0.880566 3.43544,-0.880566 1.47588,0 2.69131,0.496093 1.21543,0.483692 2.096,1.389063 0.89297,0.905371 1.37666,2.145605 0.48369,1.227832 0.48369,2.716113 v 1.153418 H 131.0499 v -2.554882 h 9.89707 l -1.95957,0.520898 q 0,-0.843359 -0.31006,-1.451074 -0.31005,-0.607715 -0.89296,-0.930176 -0.57051,-0.334863 -1.37666,-0.334863 -0.80616,0 -1.38907,0.334863 -0.5705,0.322461 -0.89297,0.930176 -0.31005,0.607715 -0.31005,1.451074 v 1.885156 q 0,0.868164 0.32246,1.525489 0.33486,0.644921 0.94257,0.992187 0.62012,0.347266 1.47588,0.347266 0.63252,0 1.12862,-0.173633 0.49609,-0.173633 0.83095,-0.496094 0.33487,-0.322461 0.4961,-0.74414 h 3.83232 q -0.23564,1.314648 -1.14101,2.33164 -0.90537,1.00459 -2.28204,1.5875 -1.36425,0.570508 -3.01376,0.570508 z"
       id="path11" />
    <path
       style="font-weight:800;font-size:25.4px;font-family:Inter;-inkscape-font-specification:'Inter Ultra-Bold';stroke-width:0.264583"
       d="m 121.99619,30.108064 q -2.02158,0 -3.54707,-0.855762 -1.52549,-0.868164 -2.38125,-2.406054 -0.84336,-1.537891 -0.84336,-3.584278 0,-2.033984 0.84336,-3.571875 0.85576,-1.550293 2.38125,-2.406054 1.52549,-0.868164 3.54707,-0.868164 1.36426,0 2.50527,0.396875 1.15342,0.396875 1.99678,1.128613 0.85576,0.719336 1.35185,1.723926 0.4961,0.992187 0.57051,2.195214 h -4.11758 q -0.0496,-0.458886 -0.22324,-0.843359 -0.17363,-0.384473 -0.47129,-0.657324 -0.28525,-0.272852 -0.66972,-0.409277 -0.38448,-0.148829 -0.85577,-0.148829 -0.79375,0 -1.36425,0.42168 -0.57051,0.409277 -0.86817,1.190625 -0.29765,0.781348 -0.29765,1.847949 0,1.066602 0.29765,1.847949 0.29766,0.781348 0.86817,1.203028 0.5705,0.409277 1.36425,0.409277 0.47129,0 0.85577,-0.136426 0.38447,-0.148828 0.65732,-0.421679 0.28525,-0.285254 0.45889,-0.669727 0.17363,-0.396875 0.23564,-0.868164 h 4.12998 q -0.0372,1.203027 -0.5209,2.207617 -0.48369,0.992188 -1.33945,1.736328 -0.85576,0.731739 -2.02158,1.141016 -1.15342,0.396875 -2.54248,0.396875 z"
       id="path10" />
    <path
       style="font-weight:800;font-size:25.4px;font-family:Inter;-inkscape-font-specification:'Inter Ultra-Bold';fill:#000000;fill-opacity:1;stroke-width:0.264583"
       d="M 109.12256,29.810408 V 16.713533 h 4.26641 v 13.096875 z"
       id="path8" />
    <path
       style="font-weight:800;font-size:25.4px;font-family:Inter;-inkscape-font-specification:'Inter Ultra-Bold';stroke-width:0.264583"
       d="M 95.666012,11.330916 V 29.810408 H 91.201169 V 11.330916 Z"
       id="path7" />
    <path
       style="font-weight:800;font-size:25.4px;font-family:Inter;-inkscape-font-specification:'Inter Ultra-Bold';stroke-width:0.264583"
       d="m 98.059665,29.810408 h -4.911328 v -3.720703 h 4.688086 q 1.699121,0 2.790527,-0.620118 1.10381,-0.620117 1.63711,-1.847949 0.5333,-1.240234 0.5333,-3.050976 0,-1.823145 -0.5457,-3.050977 -0.5333,-1.227832 -1.64951,-1.847949 -1.103813,-0.620117 -2.815337,-0.620117 h -4.71289 v -3.720703 h 4.985742 q 2.815335,0 4.886525,1.141015 2.08359,1.128614 3.21221,3.199805 1.12861,2.071191 1.12861,4.898926 0,2.827734 -1.12861,4.898925 -1.11622,2.071192 -3.18741,3.212207 -2.05879,1.128614 -4.911325,1.128614 z"
       id="path6" />
    <path
       style="font-weight:800;font-size:25.4px;font-family:Inter;-inkscape-font-specification:'Inter Ultra-Bold';stroke-width:0.264583"
       d="m 77.806637,30.108064 q -2.009179,0 -3.534667,-0.868164 -1.513086,-0.880567 -2.368848,-2.43086 -0.843359,-1.550292 -0.843359,-3.54707 0,-1.996777 0.843359,-3.54707 0.855762,-1.550293 2.356445,-2.418457 1.500684,-0.880566 3.435449,-0.880566 1.475879,0 2.691309,0.496093 1.21543,0.483692 2.095996,1.389063 0.892969,0.905371 1.37666,2.145605 0.483692,1.227832 0.483692,2.716113 v 1.153418 H 72.448825 v -2.554882 h 9.89707 l -1.95957,0.520898 q 0,-0.843359 -0.310059,-1.451074 -0.310058,-0.607715 -0.892968,-0.930176 -0.570508,-0.334863 -1.376661,-0.334863 -0.806152,0 -1.389062,0.334863 -0.570508,0.322461 -0.892969,0.930176 -0.310058,0.607715 -0.310058,1.451074 v 1.885156 q 0,0.868164 0.322461,1.525489 0.334863,0.644921 0.942578,0.992187 0.620117,0.347266 1.475879,0.347266 0.632519,0 1.128613,-0.173633 0.496094,-0.173633 0.830957,-0.496094 0.334863,-0.322461 0.496094,-0.74414 h 3.832324 q -0.235645,1.314648 -1.141016,2.33164 -0.905371,1.00459 -2.282031,1.5875 -1.364258,0.570508 -3.01377,0.570508 z"
       id="path5" />
    <path
       style="font-weight:800;font-size:25.4px;font-family:Inter;-inkscape-font-specification:'Inter Ultra-Bold';stroke-width:0.264583"
       d="M 48.698336,29.810408 V 16.713533 h 4.105176 v 3.050976 h -0.198437 q 0.322461,-1.141015 0.95498,-1.872754 0.63252,-0.74414 1.475879,-1.103808 0.843359,-0.359668 1.773535,-0.359668 1.488281,0 2.604492,0.868164 1.116211,0.855762 1.339453,2.468066 h -0.37207 q 0.235645,-1.079004 0.880566,-1.823144 0.644922,-0.744141 1.562696,-1.128613 0.930175,-0.384473 1.984375,-0.384473 1.289843,0 2.282031,0.558105 1.00459,0.558106 1.575098,1.612305 0.570507,1.041797 0.570507,2.492871 v 8.718848 h -4.278808 v -7.77627 q 0,-1.029394 -0.558106,-1.5875 -0.545703,-0.558105 -1.413867,-0.558105 -0.595312,0 -1.041797,0.272851 -0.446484,0.272852 -0.694531,0.768946 -0.248047,0.496093 -0.248047,1.16582 v 7.714258 H 56.92109 v -7.825879 q 0,-0.954981 -0.533301,-1.525488 -0.5333,-0.570508 -1.413867,-0.570508 -0.570508,0 -1.029394,0.272851 -0.446485,0.272852 -0.719336,0.781348 -0.260449,0.508496 -0.260449,1.240234 v 7.627442 z"
       id="path4" />
    <path
       style="font-weight:800;font-size:25.4px;font-family:Inter;-inkscape-font-specification:'Inter Ultra-Bold';stroke-width:0.264583"
       d="m 44.171482,15.436091 q -1.029395,0 -1.686719,-0.607714 -0.657324,-0.607715 -0.657324,-1.550293 0,-0.942578 0.657324,-1.537891 0.657324,-0.607715 1.686719,-0.607715 1.029394,0 1.686718,0.607715 0.669727,0.595313 0.669727,1.537891 0,0.942578 -0.669727,1.550293 -0.657324,0.607714 -1.686718,0.607714 z"
       id="path3" />
    <path
       style="font-weight:800;font-size:25.4px;font-family:Inter;-inkscape-font-specification:'Inter Ultra-Bold';stroke-width:0.264583"
       d="M 42.050681,29.810408 V 16.713533 h 4.266406 v 13.096875 z"
       id="path2" />
    <path
       style="font-weight:800;font-size:25.4px;font-family:Inter;-inkscape-font-specification:'Inter Ultra-Bold';stroke-width:0.264583"
       d="M 27.688767,29.810408 V 11.330916 h 4.464844 v 14.684375 h 8.185547 v 3.795117 z"
       id="text1" />
    <text
       xml:space="preserve"
       style="font-style:normal;font-variant:normal;font-weight:800;font-stretch:normal;font-size:25.4px;font-family:Inter;-inkscape-font-specification:'Inter Ultra-Bold';writing-mode:lr-tb;direction:ltr;fill:#000000;stroke-width:0.264583"
       x="99.670517"
       y="5.8553171"
       id="text2"><tspan
         sodipodi:role="line"
         id="tspan1"
         style="stroke-width:0.264583"
         x="99.670517"
         y="5.8553171"></tspan></text>
    <rect
       style="fill:#74f443;fill-opacity:1;stroke-width:0.25921"
       id="rect11"
       width="4.6999998"
       height="4.6999998"
       x="101.72559"
       y="39.09391"
       transform="rotate(-15)" />
  </g>
</svg>
